<svg width="8" height="15" viewBox="0 0 8 15" fill="none" xmlns="http://www.w3.org/2000/svg">
<path d="M4.60156 0V2.33594H3.39844V0H4.60156ZM4.45312 12.7578V14.8516H3.25781V12.7578H4.45312ZM5.63281 10.2344C5.63281 9.93229 5.57031 9.66927 5.44531 9.44531C5.32552 9.21615 5.1276 9.01042 4.85156 8.82812C4.57552 8.64062 4.20573 8.46615 3.74219 8.30469C3.07552 8.07031 2.49219 7.80729 1.99219 7.51562C1.4974 7.21875 1.11198 6.85417 0.835938 6.42188C0.565104 5.98438 0.429688 5.4401 0.429688 4.78906C0.429688 4.14844 0.575521 3.59375 0.867188 3.125C1.16406 2.65625 1.57552 2.29427 2.10156 2.03906C2.6276 1.78385 3.24219 1.65625 3.94531 1.65625C4.48698 1.65625 4.97396 1.73698 5.40625 1.89844C5.84375 2.0599 6.21615 2.29688 6.52344 2.60938C6.83073 2.92188 7.0651 3.30729 7.22656 3.76562C7.39323 4.21875 7.47656 4.73958 7.47656 5.32812H5.60156C5.60156 4.99479 5.5625 4.69792 5.48438 4.4375C5.41146 4.17188 5.30208 3.94792 5.15625 3.76562C5.01042 3.57812 4.83333 3.4349 4.625 3.33594C4.42188 3.23698 4.1901 3.1875 3.92969 3.1875C3.5599 3.1875 3.25521 3.25781 3.01562 3.39844C2.77604 3.53385 2.59896 3.72135 2.48438 3.96094C2.375 4.20052 2.32031 4.47396 2.32031 4.78125C2.32031 5.07812 2.3776 5.33854 2.49219 5.5625C2.60677 5.78646 2.80208 5.98958 3.07812 6.17188C3.35938 6.34896 3.74479 6.52865 4.23438 6.71094C4.90625 6.95052 5.48698 7.21875 5.97656 7.51562C6.47135 7.80729 6.85156 8.16927 7.11719 8.60156C7.38802 9.02865 7.52344 9.56771 7.52344 10.2188C7.52344 10.8906 7.36719 11.4609 7.05469 11.9297C6.7474 12.3984 6.3151 12.7552 5.75781 13C5.20573 13.2396 4.5625 13.3594 3.82812 13.3594C3.36458 13.3594 2.90365 13.2995 2.44531 13.1797C1.99219 13.0547 1.58073 12.8516 1.21094 12.5703C0.841146 12.2891 0.546875 11.9167 0.328125 11.4531C0.109375 10.9844 0 10.4115 0 9.73438H1.89062C1.89062 10.1406 1.94531 10.4792 2.05469 10.75C2.16406 11.0208 2.3125 11.2344 2.5 11.3906C2.6875 11.5469 2.89583 11.6589 3.125 11.7266C3.35938 11.7943 3.59375 11.8281 3.82812 11.8281C4.21875 11.8281 4.54688 11.763 4.8125 11.6328C5.08333 11.4974 5.28646 11.3099 5.42188 11.0703C5.5625 10.8255 5.63281 10.5469 5.63281 10.2344Z" fill="white"/>
</svg>
